<?xml version="1.0" encoding="UTF-8"?>
<svg width="175px" height="24px" viewBox="0 0 175 24" version="1.1" xmlns="http://www.w3.org/2000/svg" xmlns:xlink="http://www.w3.org/1999/xlink">
    <!-- Generator: Sketch 44.1 (41455) - http://www.bohemiancoding.com/sketch -->
    <title>Capsule Logo Text</title>
    <desc>Created with Sketch.</desc>
    <defs></defs>
    <g id="Page-1" stroke="none" stroke-width="1" fill="none" fill-rule="evenodd">
        <g id="capsule-logo" transform="translate(-11.941406, -192.175781)" fill-rule="nonzero" fill="#4CBEED">
            <g id="Group" transform="translate(12.000000, 192.000000)">
                <path d="M12.37,8.31 C12.37,8.61 12.19,8.79 11.89,8.79 L8.9,8.79 C8.57,8.79 8.42,8.61 8.42,8.31 L8.42,5.92 C8.42,5.14 8,4.73 7.22,4.73 L5.67,4.73 C4.86,4.73 4.48,5.15 4.48,5.92 L4.48,19.54 C4.48,20.34 4.9,20.73 5.67,20.73 L7.22,20.73 C8,20.73 8.42,20.34 8.42,19.54 L8.42,17.15 C8.42,16.85 8.57,16.67 8.9,16.67 L11.89,16.67 C12.19,16.67 12.37,16.85 12.37,17.15 L12.37,20.38 C12.37,23.19 10.85,24.68 8.07,24.68 L4.73,24.68 C1.92,24.68 0.4,23.19 0.4,20.38 L0.4,5.09 C0.4,2.28 1.92,0.79 4.73,0.79 L8.07,0.79 C10.85,0.79 12.37,2.28 12.37,5.09 L12.37,8.31 Z" id="Shape"></path>
                <path d="M34.27,6.01 L30.81,24.25 C30.75,24.52 30.6,24.67 30.33,24.67 L27.14,24.67 C26.81,24.67 26.66,24.49 26.75,24.16 L31.7,1.2 C31.76,0.9 31.94,0.78 32.21,0.78 L36.36,0.78 C36.63,0.78 36.81,0.9 36.87,1.2 L41.83,24.16 C41.89,24.49 41.77,24.67 41.41,24.67 L38.24,24.67 C37.97,24.67 37.82,24.52 37.76,24.25 L34.27,6.01 Z" id="Shape"></path>
                <path d="M90.7,0.79 C93.08,0.79 95,2.72 95,5.09 L95,8.25 C95,8.55 94.85,8.73 94.52,8.73 L91.42,8.73 C91.16,8.73 90.94,8.52 90.94,8.25 L90.94,5.92 C90.94,5.14 90.55,4.73 89.75,4.73 L88.32,4.73 C87.57,4.73 87.12,5.15 87.12,5.92 L87.12,9.76 C87.12,10.24 87.51,10.64 88,10.64 L93.9,10.64 C94.51,10.64 95.01,11.14 95.01,11.75 L95.01,20.38 C95.01,22.75 93.09,24.68 90.71,24.68 L87.36,24.68 C84.58,24.68 83.06,23.19 83.06,20.38 L83.06,17.24 C83.06,16.91 83.24,16.76 83.54,16.76 L86.64,16.76 C86.9,16.76 87.12,16.97 87.12,17.24 L87.12,19.54 C87.12,20.34 87.57,20.73 88.32,20.73 L89.75,20.73 C90.53,20.73 90.94,20.34 90.94,19.54 L90.94,15.25 C90.94,14.77 90.55,14.37 90.06,14.37 L84.16,14.37 C83.55,14.37 83.06,13.87 83.06,13.27 L83.06,5.09 C83.06,2.28 84.58,0.79 87.36,0.79 L90.7,0.79 L90.7,0.79 Z" id="Shape"></path>
                <path d="M121.29,0.79 C121.62,0.79 121.89,1.06 121.89,1.39 L121.89,20.38 C121.89,23.19 120.39,24.68 117.59,24.68 L114.25,24.68 C111.44,24.68 109.95,23.19 109.95,20.38 L109.95,1.39 C109.95,1.06 110.22,0.79 110.55,0.79 L113.42,0.79 C113.75,0.79 114.02,1.06 114.02,1.39 L114.02,19.54 C114.02,20.34 114.44,20.73 115.22,20.73 L116.77,20.73 C117.55,20.73 117.96,20.34 117.96,19.54 L117.96,1.39 C117.96,1.06 118.23,0.79 118.56,0.79 L121.29,0.79 L121.29,0.79 Z" id="Shape"></path>
                <path d="M140.89,20.73 L148,20.73 C148.33,20.73 148.48,20.91 148.48,21.21 L148.48,24.2 C148.48,24.53 148.33,24.68 148,24.68 L137.31,24.68 C137.01,24.68 136.83,24.53 136.83,24.2 L136.83,1.27 C136.83,0.97 137.01,0.79 137.31,0.79 L140.41,0.79 C140.74,0.79 140.89,0.97 140.89,1.27 L140.89,20.73 L140.89,20.73 Z" id="Shape"></path>
                <g transform="translate(162.000000, 0.000000)" id="Shape">
                    <path d="M12.26,20.73 L0.82,20.73 L0.82,24.19 C0.82,24.49 1,24.67 1.27,24.67 L12.26,24.67 C12.62,24.67 12.74,24.49 12.74,24.19 L12.74,21.2 C12.73,20.88 12.61,20.73 12.26,20.73 Z"></path>
                    <path d="M0.82,10.73 L0.82,14.69 L10.49,14.7 C10.79,14.7 10.97,14.52 10.97,14.19 L10.97,11.23 C10.97,10.9 10.79,10.72 10.49,10.72 L0.82,10.73 Z"></path>
                    <path d="M12.26,0.79 L1.27,0.79 C1,0.79 0.82,0.97 0.82,1.27 L0.82,4.76 L12.26,4.76 C12.62,4.76 12.74,4.55 12.74,4.25 L12.74,1.26 C12.73,0.97 12.61,0.79 12.26,0.79 Z"></path>
                </g>
                <path d="M64.11,0.79 L56.95,0.79 C56.69,0.79 56.47,1 56.47,1.27 L56.47,4.71 L63.16,4.73 C63.97,4.73 64.35,5.15 64.35,5.92 L64.35,9.67 C64.35,10.42 63.96,10.87 63.16,10.87 L58.15,10.87 C57.23,10.87 56.48,11.62 56.48,12.54 L56.48,24.2 C56.48,24.46 56.69,24.68 56.96,24.68 L60.07,24.68 C60.4,24.68 60.55,24.5 60.55,24.2 L60.55,14.81 L64.13,14.81 C66.94,14.81 68.43,13.29 68.43,10.51 L68.43,5.09 C68.41,2.71 66.49,0.79 64.11,0.79 Z" id="Shape"></path>
            </g>
        </g>
    </g>
</svg>